#!OML:ASF H:\Terrain\Patient Classification 1\Animal2\Wednesday\Animal2.ASF
:FULLY-SPECIFIED
:DEGREES
1407
root 15.1967 18.076 5.50002 12.2574 -10.7308 0.412139
lowerback 9.69689 -2.23127 1.90658
upperback -2.63061 -2.79732 -0.705495
thorax -8.36987 -1.47858 -1.34862
lowerneck 7.85221 6.06207 14.8207
upperneck -41.95 5.04275 -20.0724
head -14.5167 2.43378 -12.3467
rclavicle -2.65874e-014 2.127e-014
rhumerus -35.2859 25.1 -59.7966
rradius 137.358
rwrist 2.32749
rhand -16.9325 29.6053
rfingers 7.12502
rthumb 9.30051 -0.169585
lclavicle -2.65874e-014 2.127e-014
lhumerus -38.4396 -43.7207 56.1769
lradius 135.452
lwrist 27.2714
lhand 6.85524 7.481
lfingers 7.12502
lthumb 32.1379 34.6592
rfemur -20.5464 -3.12797 22.0714
rtibia 22.6159
rfoot -16.3328 7.57431
rtoes 28.5834
lfemur -19.4454 -7.58667 -18.5342
ltibia 22.7952
lfoot -15.736 -2.89506
ltoes -24.6132
1408
root 15.1917 18.0845 5.46201 12.4635 -10.9345 0.421022
lowerback 9.9137 -2.06225 1.85151
upperback -2.5295 -2.58738 -0.871162
thorax -8.38279 -1.37735 -1.52413
lowerneck 7.79569 5.96574 14.7243
upperneck -41.6375 4.92347 -19.9719
head -14.3919 2.40723 -12.2134
rclavicle -7.32522e-014 -2.98177e-014
rhumerus -32.9317 21.1022 -56.1813
rradius 138.193
rwrist 1.45139
rhand -18.8311 28.9884
rfingers 7.12502
rthumb 7.46814 -0.859815
lclavicle -7.32522e-014 -2.98177e-014
lhumerus -34.8937 -42.4826 51.5482
lradius 137.073
lwrist 29.1644
lhand 5.01114 7.18895
lfingers 7.12502
lthumb 30.3806 34.7066
rfemur -21.019 -2.42628 22.0325
rtibia 22.8436
rfoot -16.3618 6.88389
rtoes 27.6463
lfemur -19.9688 -6.71158 -18.5502
ltibia 23.1028
lfoot -15.4185 -3.64428
ltoes -24.6519
1409
root 15.1841 18.0868 5.4316 12.3883 -11.0466 0.591571
lowerback 10.3112 -1.89696 1.48499
upperback -2.33307 -2.4122 -0.925859
thorax -8.37852 -1.27278 -1.39784
lowerneck 7.68845 5.90857 14.4958
upperneck -41.1579 4.76682 -20.0632
head -14.1745 2.41712 -12.1085
rclavicle 2.28602e-014 -8.74653e-015
rhumerus -30.7182 16.9729 -52.7841
rradius 138.513
rwrist 0.430135
rhand -19.5108 28.8438
rfingers 7.12502
rthumb 6.81206 -1.02661
lclavicle 2.28602e-014 -8.74653e-015
lhumerus -31.1562 -40.3494 46.9972
lradius 138.522
lwrist 31.5269
lhand 3.07721 7.08689
lfingers 7.12502
lthumb 28.5343 34.9298
rfemur -21.2093 -1.9251 21.8354
rtibia 23.1016
rfoot -16.2013 6.38804
rtoes 27.6935
lfemur -20.1503 -6.02218 -18.7679
ltibia 23.3386
lfoot -15.213 -3.92181
ltoes -25.5643
1410
root 15.1717 18.0951 5.408 12.2468 -11.1518 0.794613
lowerback 10.7696 -1.75797 0.98935
upperback -2.13352 -2.28848 -0.932934
thorax -8.40211 -1.18601 -1.13849
lowerneck 7.6463 5.94266 14.0932
upperneck -40.9439 4.69784 -20.167
head -14.0877 2.47758 -12.0352
rclavicle -4.57702e-014 1.63003e-014
rhumerus -29.059 13.9617 -50.535
rradius 138.372
rwrist 0.0866703
rhand -19.5796 28.7185
rfingers 7.12502
rthumb 6.74562 -1.15409
lclavicle -4.57702e-014 1.63003e-014
lhumerus -27.8476 -37.5415 42.9334
lradius 139.627
lwrist 33.9581
lhand 1.3647 7.0435
lfingers 7.12502
lthumb 26.8969 35.1498
rfemur -21.3335 -1.46864 21.6178
rtibia 23.3735
rfoot -16.0604 5.87144
rtoes 27.4805
lfemur -20.2134 -5.5303 -18.983
ltibia 23.4685
lfoot -14.9238 -4.391
ltoes -24.9706
1411
root 15.1587 18.1096 5.38519 12.3117 -11.2951 1.03836
lowerback 10.9408 -1.65093 0.468061
upperback -2.01528 -2.21963 -0.976746
thorax -8.35174 -1.12721 -0.901049
lowerneck 7.52638 5.99667 13.8643
upperneck -40.7596 4.65377 -20.3621
head -13.977 2.52961 -12.0361
rclavicle -2.43511e-015 0
rhumerus -28.1829 13.06 -49.8127
rradius 138.05
rwrist 1.14432
rhand -20.288 27.9183
rfingers 7.12502
rthumb 6.06175 -1.975
lclavicle -2.43511e-015 0
lhumerus -25.1567 -34.6222 39.5798
lradius 140.2
lwrist 36.5445
lhand -1.40347 6.39837
lfingers 7.12502
lthumb 24.2454 34.8855
rfemur -21.6351 -1.03744 21.3552
rtibia 23.5786
rfoot -15.9336 5.38777
rtoes 26.9832
lfemur -20.5018 -5.06824 -19.202
ltibia 23.5312
lfoot -14.2402 -5.24758
ltoes -22.1548
1412
root 15.1491 18.1257 5.37542 12.3493 -11.2334 1.27471
lowerback 11.0934 -1.64763 0.10305
upperback -2.00321 -2.26896 -1.005
thorax -8.41441 -1.13371 -0.712621
lowerneck 7.42404 6.03043 13.842
upperneck -40.2666 4.59582 -20.7208
head -13.7069 2.58026 -12.0956
rclavicle 2.2413e-014 -2.18663e-014
rhumerus -28.0048 13.6657 -49.9314
rradius 137.643
rwrist 2.12436
rhand -19.2092 27.4344
rfingers 7.12502
rthumb 7.10321 -2.42636
lclavicle 2.2413e-014 -2.18663e-014
lhumerus -23.2717 -31.9692 37.2726
lradius 140.248
lwrist 39.3392
lhand -1.80002 7.24168
lfingers 7.12502
lthumb 23.8652 35.779
rfemur -21.7762 -0.921548 21.1162
rtibia 23.6808
rfoot -15.7273 5.12862
rtoes 26.5722
lfemur -20.6466 -4.8233 -19.4409
ltibia 23.5426
lfoot -13.732 -5.65396
ltoes -21.8339
